<?xml version="1.0" standalone="no"?>
<!DOCTYPE svg PUBLIC "-//W3C//DTD SVG 20010904//EN"
 "http://www.w3.org/TR/2001/REC-SVG-20010904/DTD/svg10.dtd">
<svg version="1.0" xmlns="http://www.w3.org/2000/svg"
 width="768.000000pt" height="768.000000pt" viewBox="0 0 768.000000 768.000000"
 preserveAspectRatio="xMidYMid meet">
<metadata>
Created by potrace 1.14, written by Peter Selinger 2001-2017
</metadata>
<g transform="translate(0.000000,768.000000) scale(0.100000,-0.100000)"
fill="#000000" stroke="none">
<path d="M3618 7435 c-1 -1 -45 -5 -97 -9 -51 -3 -96 -8 -100 -10 -3 -2 -33
-6 -66 -10 -156 -16 -485 -91 -626 -142 -24 -8 -51 -17 -59 -19 -45 -10 -274
-105 -400 -167 -251 -122 -514 -289 -695 -439 -157 -131 -327 -295 -440 -423
-395 -451 -676 -1003 -809 -1591 -14 -60 -27 -128 -31 -150 -3 -23 -7 -51 -10
-64 -10 -55 -26 -184 -33 -271 -9 -123 -9 -503 1 -600 13 -134 26 -239 36
-298 6 -31 13 -73 16 -92 13 -73 58 -250 97 -375 275 -890 896 -1650 1716
-2097 100 -54 315 -158 329 -158 3 0 19 -6 36 -14 206 -93 616 -203 867 -232
30 -3 63 -8 72 -10 130 -24 795 -24 837 0 3 2 35 7 71 10 88 10 251 41 395 77
118 29 386 115 448 143 18 8 66 29 107 47 129 55 350 172 477 252 624 396
1109 965 1398 1642 50 116 150 407 160 465 3 18 8 37 11 42 6 9 5 4 37 163 22
104 34 175 52 310 20 149 28 599 12 730 -3 33 -9 87 -12 120 -3 33 -8 69 -10
81 -3 12 -7 39 -10 60 -3 21 -8 48 -10 60 -3 12 -7 39 -11 60 -3 21 -21 100
-39 175 -132 534 -377 1017 -730 1443 -105 125 -277 304 -379 391 -32 28 -63
55 -70 61 -6 6 -56 46 -111 89 -276 215 -593 394 -925 520 -119 46 -346 117
-413 131 -10 2 -26 5 -35 8 -9 3 -28 7 -42 10 -14 2 -72 13 -130 24 -58 12
-127 24 -155 27 -27 3 -68 9 -90 12 -22 3 -60 7 -85 9 -55 6 -547 14 -552 9z
m1309 -3145 c-1 -734 -6 -1348 -10 -1365 -4 -16 -12 -57 -18 -90 -37 -214
-123 -385 -264 -520 -209 -202 -518 -283 -950 -250 -276 21 -490 106 -633 253
-117 121 -210 331 -261 587 -26 135 -30 171 -37 378 l-7 177 29 1 c159 4 647
-1 652 -6 4 -4 7 -37 8 -73 3 -190 29 -401 62 -508 32 -102 77 -155 169 -197
41 -18 66 -21 168 -21 108 0 126 2 175 25 88 41 146 118 170 225 21 92 23 223
25 1439 1 699 3 1272 4 1275 0 3 163 5 361 5 l361 0 -4 -1335z"/>
</g>
</svg>
